<svg role="img" height="16" width="16" viewBox="0 0 16 16" class="Svg-ulyrgf-0 hJgLcF"><path d="M10 4.001H6V2.5l-3.464 2L6 6.5V5h4c2.206 0 4 1.794 4 4s-1.794 4-4 4v1c2.75 0 5-2.25 5-5s-2.25-4.999-5-4.999zM2.393 8.739c-.083.126-.19.236-.32.332a1.642 1.642 0 01-.452.229 1.977 1.977 0 01-.56.092v.752h1.36V14h1.096V8.327h-.96c-.027.15-.081.287-.164.412zm5.74 2.036a1.762 1.762 0 00-.612-.368 2.295 2.295 0 00-.78-.128c-.191 0-.387.031-.584.092a1.188 1.188 0 00-.479.268l.327-1.352H8.38v-.96H5.252l-.688 2.872c.037.017.105.042.204.076l.308.108.309.107.212.076c.096-.112.223-.205.38-.28.157-.075.337-.112.54-.112.133 0 .264.021.392.063.128.043.24.105.336.188a.907.907 0 01.233.316c.059.128.088.275.088.44a.927.927 0 01-.628.916 1.19 1.19 0 01-.404.068c-.16 0-.306-.025-.435-.076a1.046 1.046 0 01-.34-.212.992.992 0 01-.229-.32 1.171 1.171 0 01-.1-.4l-1.04.248c.021.225.086.439.195.645.109.205.258.388.444.548.187.16.406.287.66.38.253.093.534.14.844.14.336 0 .636-.052.9-.156.264-.104.487-.246.672-.424.184-.179.325-.385.424-.62.099-.235.148-.485.148-.752 0-.298-.049-.565-.145-.8a1.686 1.686 0 00-.399-.591z"></path></svg>
