<svg role="img" height="16" width="16" viewBox="0 0 16 16" class="Svg-ulyrgf-0 hJgLcF"><path d="M6 5h4v1.5l3.464-2L10 2.5V4H6C3.25 4 1 6.25 1 9s2.25 5 5 5v-1c-2.206 0-4-1.794-4-4s1.794-4 4-4zm1.935 3.739a1.306 1.306 0 01-.32.332c-.13.096-.281.172-.451.228a1.956 1.956 0 01-.562.092v.752h1.36v3.856h1.096V8.327h-.96c-.026.15-.08.287-.163.412zm6.139 2.628a1.664 1.664 0 00-.399-.592 1.747 1.747 0 00-.612-.368 2.295 2.295 0 00-.78-.128c-.191 0-.387.03-.584.092-.197.061-.357.15-.479.268l.327-1.352h2.376v-.96h-3.128l-.688 2.872c.037.016.106.041.204.076l.308.108.309.108.212.076c.096-.112.223-.206.38-.28.157-.075.337-.112.54-.112.133 0 .264.021.392.064a.97.97 0 01.336.188.907.907 0 01.233.316c.058.128.088.274.088.44a.941.941 0 01-.3.721.995.995 0 01-.328.196 1.19 1.19 0 01-.404.068c-.16 0-.306-.025-.436-.076a1.03 1.03 0 01-.569-.532 1.171 1.171 0 01-.1-.4l-1.04.248c.02.224.086.439.195.644.109.205.258.388.444.548.186.16.406.287.66.38.253.093.534.14.844.14.336 0 .636-.052.9-.156.264-.104.487-.245.672-.424.184-.179.325-.385.424-.62a1.91 1.91 0 00.148-.752c0-.3-.049-.566-.145-.801z"></path></svg>
