<?xml version="1.0" encoding="UTF-8" standalone="no"?>
<svg
   xmlns:dc="http://purl.org/dc/elements/1.1/"
   xmlns:cc="http://creativecommons.org/ns#"
   xmlns:rdf="http://www.w3.org/1999/02/22-rdf-syntax-ns#"
   xmlns:svg="http://www.w3.org/2000/svg"
   xmlns="http://www.w3.org/2000/svg"
   xmlns:sodipodi="http://sodipodi.sourceforge.net/DTD/sodipodi-0.dtd"
   xmlns:inkscape="http://www.inkscape.org/namespaces/inkscape"
   width="16"
   height="16"
   fill="currentColor"
   viewBox="0 0 18 20"
   data-testid="user-icon"
   version="1.1"
   id="svg4"
   sodipodi:docname="user.svg"
   inkscape:version="0.92.5 (2060ec1f9f, 2020-04-08)">
  <metadata
     id="metadata10">
    <rdf:RDF>
      <cc:Work
         rdf:about="">
        <dc:format>image/svg+xml</dc:format>
        <dc:type
           rdf:resource="http://purl.org/dc/dcmitype/StillImage" />
      </cc:Work>
    </rdf:RDF>
  </metadata>
  <defs
     id="defs8" />
  <sodipodi:namedview
     pagecolor="#ffffff"
     bordercolor="#666666"
     borderopacity="1"
     objecttolerance="10"
     gridtolerance="10"
     guidetolerance="10"
     inkscape:pageopacity="0"
     inkscape:pageshadow="2"
     inkscape:window-width="2560"
     inkscape:window-height="1056"
     id="namedview6"
     showgrid="false"
     inkscape:zoom="14.75"
     inkscape:cx="0.98305085"
     inkscape:cy="8"
     inkscape:window-x="0"
     inkscape:window-y="0"
     inkscape:window-maximized="1"
     inkscape:current-layer="svg4" />
  <path
     d="M15.216 13.717L12 11.869C11.823 11.768 11.772 11.607 11.757 11.521C11.742 11.435 11.737 11.267 11.869 11.111L13.18 9.57401C14.031 8.58001 14.5 7.31101 14.5 6.00001V5.50001C14.5 3.98501 13.866 2.52301 12.761 1.48601C11.64 0.435011 10.173 -0.0879888 8.636 0.0110112C5.756 0.198011 3.501 2.68401 3.501 5.67101V6.00001C3.501 7.31101 3.97 8.58001 4.82 9.57401L6.131 11.111C6.264 11.266 6.258 11.434 6.243 11.521C6.228 11.607 6.177 11.768 5.999 11.869L2.786 13.716C1.067 14.692 0 16.526 0 18.501V20H1V18.501C1 16.885 1.874 15.385 3.283 14.584L6.498 12.736C6.886 12.513 7.152 12.132 7.228 11.691C7.304 11.251 7.182 10.802 6.891 10.462L5.579 8.92501C4.883 8.11101 4.499 7.07201 4.499 6.00001V5.67101C4.499 3.21001 6.344 1.16201 8.699 1.00901C9.961 0.928011 11.159 1.35601 12.076 2.21501C12.994 3.07601 13.5 4.24301 13.5 5.50001V6.00001C13.5 7.07201 13.117 8.11101 12.42 8.92501L11.109 10.462C10.819 10.803 10.696 11.251 10.772 11.691C10.849 12.132 11.115 12.513 11.503 12.736L14.721 14.585C16.127 15.384 17.001 16.884 17.001 18.501V20H18.001V18.501C18 16.526 16.932 14.692 15.216 13.717Z"
     id="path2"
     inkscape:export-filename="/home/jailson2/Estudos/Qt/JPotify/src/Widgets/resources/images/png/user.png"
     inkscape:export-xdpi="191.99181"
     inkscape:export-ydpi="191.99181" />
</svg>
